<svg width="14" height="14" viewBox="0 0 14 14" fill="none" xmlns="http://www.w3.org/2000/svg">
<path d="M12.1056 9.47716C12.0768 9.37178 12.1401 9.22541 12.2005 9.12002C12.2189 9.08865 12.2391 9.05836 12.2609 9.02927C12.7775 8.2479 13.0538 7.32766 13.0547 6.38583C13.0633 3.68677 10.8257 1.49707 8.05899 1.49707C5.64599 1.49707 3.63277 3.16862 3.1611 5.38759C3.09054 5.71647 3.05486 6.05212 3.05469 6.38876C3.05469 9.09075 5.20596 11.339 7.97271 11.339C8.41274 11.339 9.0052 11.2043 9.3302 11.1136C9.65519 11.0228 9.9773 10.9028 10.0607 10.8706C10.1462 10.8378 10.2368 10.8209 10.3282 10.8208C10.4279 10.8205 10.5266 10.8404 10.6187 10.8794L12.2494 11.4678C12.2851 11.4832 12.3229 11.4931 12.3615 11.4971C12.4226 11.4971 12.4811 11.4724 12.5242 11.4285C12.5674 11.3846 12.5916 11.325 12.5916 11.2629C12.5896 11.2361 12.5848 11.2096 12.5772 11.1838L12.1056 9.47716Z" stroke="#FF8B65" stroke-width="1.5" stroke-miterlimit="10" stroke-linecap="round"/>
<path d="M2.11362 6.00245C1.66819 6.67946 1.41517 7.46805 1.38253 8.28102C1.34989 9.094 1.53891 9.8997 1.9287 10.609C1.98844 10.7196 2.02026 10.8039 2.004 10.8574C1.98775 10.9108 1.49982 12.6892 1.49982 12.6892C1.48818 12.7308 1.48773 12.7748 1.49851 12.8166C1.5093 12.8584 1.53092 12.8964 1.56113 12.9267C1.60158 12.9654 1.6539 12.9886 1.70932 12.9927C1.7389 12.9952 1.76869 12.9914 1.79681 12.9816L3.51243 12.4553C3.63053 12.4188 3.75794 12.4313 3.86669 12.4902C4.40855 12.7578 5.01629 12.9471 5.63563 12.9975C6.46666 13.0661 7.30133 12.9096 8.05478 12.544" stroke="#FF8B65" stroke-width="1.5" stroke-miterlimit="10" stroke-linecap="round"/>
</svg>
