<svg width="47" height="33" viewBox="0 0 47 33" fill="none" xmlns="http://www.w3.org/2000/svg">
<path d="M10.6236 10.1456C13.388 10.1456 15.629 7.90462 15.629 5.1402C15.629 2.37578 13.388 0.134766 10.6236 0.134766C7.85917 0.134766 5.61816 2.37578 5.61816 5.1402C5.61816 7.90462 7.85917 10.1456 10.6236 10.1456Z" fill="#213A8F"/>
<path d="M35.9898 10.0109C38.7542 10.0109 40.9952 7.76985 40.9952 5.00543C40.9952 2.24101 38.7542 0 35.9898 0C33.2254 0 30.9844 2.24101 30.9844 5.00543C30.9844 7.76985 33.2254 10.0109 35.9898 10.0109Z" fill="#213A8F"/>
<path d="M22.0258 19.2935C22.0258 15.1123 17.0949 11.7241 11.0129 11.7241C4.93094 11.7241 0 15.1123 0 19.2935C0 23.0014 3.88083 26.0892 9.004 26.738C9.65521 26.8197 10.3281 26.863 11.0129 26.863C17.0949 26.863 22.0258 23.4747 22.0258 19.2935Z" fill="#213A8F"/>
<path d="M13.4132 32.1326L7.61719 26.4976L13.4132 26.6802V32.1326Z" fill="#213A8F"/>
<path d="M24.9736 19.5338C24.9736 15.3526 29.9046 11.9644 35.9865 11.9644C42.0685 11.9644 46.9994 15.3526 46.9994 19.5338C46.9994 23.2416 43.1186 26.3294 37.9954 26.9782C37.3442 27.0599 36.6714 27.1032 35.9865 27.1032C29.907 27.1032 24.9736 23.715 24.9736 19.5338Z" fill="#213A8F"/>
<path d="M33.5859 32.3728L39.3819 26.7378L33.5859 26.9204V32.3728Z" fill="#213A8F"/>
<path d="M5.56485 21.305C6.69822 21.305 7.617 20.3862 7.617 19.2528C7.617 18.1195 6.69822 17.2007 5.56485 17.2007C4.43148 17.2007 3.5127 18.1195 3.5127 19.2528C3.5127 20.3862 4.43148 21.305 5.56485 21.305Z" fill="white"/>
<path d="M10.852 21.305C11.9853 21.305 12.9041 20.3862 12.9041 19.2528C12.9041 18.1195 11.9853 17.2007 10.852 17.2007C9.71859 17.2007 8.7998 18.1195 8.7998 19.2528C8.7998 20.3862 9.71859 21.305 10.852 21.305Z" fill="white"/>
<path d="M16.2436 21.305C17.3769 21.305 18.2957 20.3862 18.2957 19.2528C18.2957 18.1195 17.3769 17.2007 16.2436 17.2007C15.1102 17.2007 14.1914 18.1195 14.1914 19.2528C14.1914 20.3862 15.1102 21.305 16.2436 21.305Z" fill="white"/>
<path d="M30.3959 21.305C31.5293 21.305 32.4481 20.3862 32.4481 19.2528C32.4481 18.1195 31.5293 17.2007 30.3959 17.2007C29.2625 17.2007 28.3438 18.1195 28.3438 19.2528C28.3438 20.3862 29.2625 21.305 30.3959 21.305Z" fill="white"/>
<path d="M35.682 21.305C36.8154 21.305 37.7342 20.3862 37.7342 19.2528C37.7342 18.1195 36.8154 17.2007 35.682 17.2007C34.5487 17.2007 33.6299 18.1195 33.6299 19.2528C33.6299 20.3862 34.5487 21.305 35.682 21.305Z" fill="white"/>
<path d="M41.0746 21.305C42.208 21.305 43.1268 20.3862 43.1268 19.2528C43.1268 18.1195 42.208 17.2007 41.0746 17.2007C39.9412 17.2007 39.0225 18.1195 39.0225 19.2528C39.0225 20.3862 39.9412 21.305 41.0746 21.305Z" fill="white"/>
</svg>
