<svg width="10" height="18" viewBox="0 0 10 18" fill="none" xmlns="http://www.w3.org/2000/svg">
<path fill-rule="evenodd" clip-rule="evenodd" d="M5.34235 3.14154L8.85185 7.20954C8.97185 7.34804 9.02134 7.50704 8.99984 7.68654C8.97834 7.86604 8.85985 7.97054 8.64485 7.99954L1.37184 7.99954C1.19634 7.98704 1.08084 7.90004 1.02534 7.73854C0.970345 7.57654 0.998345 7.41304 1.11034 7.24804L4.65884 3.14154C4.70357 3.09639 4.7568 3.06054 4.81546 3.03608C4.87411 3.01162 4.93704 2.99902 5.0006 2.99902C5.06415 2.99902 5.12708 3.01162 5.18573 3.03608C5.24439 3.06054 5.29762 3.09639 5.34235 3.14154Z" fill="#C70025"/>
<g clip-path="url(#clip0_351_8274)">
<path fill-rule="evenodd" clip-rule="evenodd" d="M4.65741 14.8585L1.14791 10.7905C1.02791 10.652 0.978412 10.493 0.999912 10.3135C1.02141 10.134 1.13991 10.0295 1.35491 10.0005L8.62791 10.0005C8.80341 10.013 8.91891 10.1 8.97441 10.2615C9.02941 10.4235 9.00141 10.587 8.88941 10.752L5.34091 14.8585C5.29619 14.9036 5.24296 14.9395 5.1843 14.9639C5.12564 14.9884 5.06272 15.001 4.99916 15.001C4.93561 15.001 4.87268 14.9884 4.81402 14.9639C4.75536 14.9395 4.70213 14.9036 4.65741 14.8585Z" fill="#C70025"/>
</g>
<defs>
<clipPath id="clip0_351_8274">
<rect width="10" height="10" fill="white" transform="translate(10 17.5) rotate(-180)"/>
</clipPath>
</defs>
</svg>
