<svg width="19" height="17" viewBox="0 0 19 17" fill="none" xmlns="http://www.w3.org/2000/svg">
<path d="M18.7402 6.92966C18.7577 6.81486 18.7517 6.69783 18.7227 6.58528C18.6936 6.47273 18.642 6.36687 18.5709 6.27375C18.4997 6.18064 18.4104 6.1021 18.3081 6.04264C18.2057 5.98317 18.0923 5.94395 17.9744 5.92721L12.8526 5.19832L10.5632 0.656429C10.4806 0.517598 10.3619 0.402365 10.2191 0.322288C10.0762 0.242212 9.9143 0.200106 9.7495 0.200195C9.58469 0.200285 9.4228 0.242566 9.28007 0.322798C9.13735 0.40303 9.0188 0.518391 8.93631 0.657312L6.6478 5.19832L1.52605 5.92721C1.35888 5.95085 1.20181 6.01952 1.07258 6.12546C0.943356 6.23139 0.84711 6.37039 0.794708 6.52675C0.742305 6.68312 0.73583 6.85063 0.776015 7.01038C0.8162 7.17014 0.901444 7.31578 1.02213 7.43088L4.73179 10.9721L3.85626 15.9702C3.82859 16.1324 3.84792 16.2989 3.9121 16.4511C3.97628 16.6032 4.08275 16.7348 4.21956 16.8313C4.35637 16.9277 4.51808 16.9851 4.68654 16.997C4.855 17.0089 5.02353 16.9748 5.17318 16.8985L9.75021 14.5424L14.3263 16.8976C14.4758 16.9747 14.6444 17.0095 14.8131 16.9981C14.9819 16.9867 15.1439 16.9296 15.281 16.8332C15.4182 16.7368 15.5248 16.6049 15.589 16.4526C15.6532 16.3002 15.6723 16.1334 15.6442 15.9711L14.7686 10.9721L18.4792 7.43C18.6198 7.29531 18.7115 7.11965 18.7402 6.92966ZM13.9647 10.5035C13.9126 10.5535 13.8736 10.6149 13.851 10.6827C13.8284 10.7504 13.823 10.8224 13.8351 10.8927L14.7505 16.1176L9.96139 13.6529C9.89616 13.6199 9.82373 13.6027 9.75021 13.6027C9.67669 13.6027 9.60426 13.6199 9.53903 13.6529L4.74992 16.1184L5.66532 10.8927C5.67744 10.8224 5.67199 10.7504 5.64942 10.6827C5.62686 10.6149 5.58786 10.5535 5.53572 10.5035L1.65657 6.79994L7.01487 6.03751C7.08772 6.02695 7.15686 5.99935 7.21637 5.95709C7.27587 5.91483 7.32398 5.85916 7.35656 5.79484L9.75021 1.04647L12.143 5.79573C12.1756 5.86015 12.2239 5.91589 12.2835 5.95816C12.3432 6.00043 12.4125 6.02796 12.4856 6.0384L17.8448 6.79994L13.9647 10.5035Z" fill="#FFB904"/>
</svg>
